<svg xmlns="http://www.w3.org/2000/svg" viewBox="0 0 23.73 25.65">
	<defs>
		<style>
			.diagnosis{fill:none;stroke:#fff;stroke-linecap:round;stroke-linejoin:round;stroke-width:2.5px;}
			.diagnosis{
				stroke-dasharray : 40; /* 선의 길이  */ 
				stroke-dashoffset : 40; /* 선의 간격 */ 
				animation : dash 0.8s linear forwards;*/ 
			}
			
			@keyframes dash{
				0% { stroke-dashoffset : 40; }
				100% { stroke-dashoffset : 0; }
			}
			
		</style>
	</defs>


	<g id="레이어_1" data-name="레이어 1">
		<circle class="diagnosis" cx="19.48" cy="13.93" r="3"/>
		<line class="diagnosis" x1="4" y1="1.25" x2="4" y2="3.74"/>
		<line class="diagnosis" x1="10.41" y1="1.25" x2="10.41" y2="3.74"/>
		<path class="diagnosis" d="M19.48,16.93v1.34a6.15,6.15,0,0,1-6.13,6.13h0a6.15,6.15,0,0,1-6.13-6.13V16.93"/>
		<path class="diagnosis" d="M10.41,2.25a5,5,0,0,1,2.77,4.48v5.2a5,5,0,0,1-5,5H6.25a5,5,0,0,1-5-5V6.73A5,5,0,0,1,4,2.27"/>
	</g>
	
</svg>